{
	"asset":{
		"generator":"Khronos glTF Blender I/O v4.0.44",
		"version":"2.0"
	},
	"scene":0,
	"scenes":[
		{
			"name":"Scene",
			"nodes":[
				9
			]
		}
	],
	"nodes":[
		{
			"name":"ROOT_ROTATION",
			"rotation":[
				-1.1634239882596376e-07,
				2.1336365563229265e-08,
				0.7071067690849304,
				0.7071067690849304
			]
		},
		{
			"name":"ROTATION_TOP",
			"rotation":[
				-2.6692537957728746e-08,
				2.6692537957728746e-08,
				0.7071067690849304,
				0.7071067690849304
			],
			"translation":[
				0,
				0.08967269957065582,
				0
			]
		},
		{
			"name":"ROTATION_TOP.002"
		},
		{
			"children":[
				2
			],
			"name":"ROTATION_TOP.001",
			"rotation":[
				-2.6692537957728746e-08,
				2.6692537957728746e-08,
				0.7071067690849304,
				0.7071067690849304
			],
			"translation":[
				-0.0006036162376403809,
				-0.004867032170295715,
				0
			]
		},
		{
			"children":[
				1,
				3
			],
			"name":"ROTATION_MID02",
			"translation":[
				0,
				0.08967266976833344,
				0
			]
		},
		{
			"children":[
				4
			],
			"name":"ROTATION_MID01",
			"translation":[
				0,
				0.09058970957994461,
				0
			]
		},
		{
			"name":"ROTATION_BOT",
			"rotation":[
				-0.5,
				0.5,
				0.5,
				0.5
			],
			"translation":[
				0,
				0.09058970957994461,
				0
			]
		},
		{
			"mesh":0,
			"name":"Cover",
			"skin":0
		},
		{
			"mesh":1,
			"name":"Pages",
			"skin":0
		},
		{
			"children":[
				7,
				8,
				0,
				5,
				6
			],
			"name":"ArmatureLibro",
			"scale":[
				0.11791250854730606,
				0.11791250854730606,
				0.11791250854730606
			]
		}
	],
	"animations":[
		{
			"channels":[
				{
					"sampler":0,
					"target":{
						"node":0,
						"path":"translation"
					}
				},
				{
					"sampler":1,
					"target":{
						"node":0,
						"path":"rotation"
					}
				},
				{
					"sampler":2,
					"target":{
						"node":0,
						"path":"scale"
					}
				},
				{
					"sampler":3,
					"target":{
						"node":5,
						"path":"translation"
					}
				},
				{
					"sampler":4,
					"target":{
						"node":5,
						"path":"rotation"
					}
				},
				{
					"sampler":5,
					"target":{
						"node":5,
						"path":"scale"
					}
				},
				{
					"sampler":6,
					"target":{
						"node":4,
						"path":"translation"
					}
				},
				{
					"sampler":7,
					"target":{
						"node":4,
						"path":"rotation"
					}
				},
				{
					"sampler":8,
					"target":{
						"node":4,
						"path":"scale"
					}
				},
				{
					"sampler":9,
					"target":{
						"node":1,
						"path":"translation"
					}
				},
				{
					"sampler":10,
					"target":{
						"node":1,
						"path":"rotation"
					}
				},
				{
					"sampler":11,
					"target":{
						"node":1,
						"path":"scale"
					}
				},
				{
					"sampler":12,
					"target":{
						"node":3,
						"path":"translation"
					}
				},
				{
					"sampler":13,
					"target":{
						"node":3,
						"path":"rotation"
					}
				},
				{
					"sampler":14,
					"target":{
						"node":3,
						"path":"scale"
					}
				},
				{
					"sampler":15,
					"target":{
						"node":2,
						"path":"translation"
					}
				},
				{
					"sampler":16,
					"target":{
						"node":2,
						"path":"rotation"
					}
				},
				{
					"sampler":17,
					"target":{
						"node":2,
						"path":"scale"
					}
				},
				{
					"sampler":18,
					"target":{
						"node":6,
						"path":"translation"
					}
				},
				{
					"sampler":19,
					"target":{
						"node":6,
						"path":"rotation"
					}
				},
				{
					"sampler":20,
					"target":{
						"node":6,
						"path":"scale"
					}
				}
			],
			"name":"OPEN",
			"samplers":[
				{
					"input":13,
					"interpolation":"STEP",
					"output":14
				},
				{
					"input":15,
					"interpolation":"LINEAR",
					"output":16
				},
				{
					"input":13,
					"interpolation":"STEP",
					"output":17
				},
				{
					"input":13,
					"interpolation":"STEP",
					"output":18
				},
				{
					"input":15,
					"interpolation":"LINEAR",
					"output":19
				},
				{
					"input":13,
					"interpolation":"STEP",
					"output":20
				},
				{
					"input":13,
					"interpolation":"STEP",
					"output":21
				},
				{
					"input":15,
					"interpolation":"LINEAR",
					"output":22
				},
				{
					"input":13,
					"interpolation":"STEP",
					"output":23
				},
				{
					"input":13,
					"interpolation":"STEP",
					"output":24
				},
				{
					"input":15,
					"interpolation":"LINEAR",
					"output":25
				},
				{
					"input":13,
					"interpolation":"STEP",
					"output":26
				},
				{
					"input":15,
					"interpolation":"LINEAR",
					"output":27
				},
				{
					"input":15,
					"interpolation":"LINEAR",
					"output":28
				},
				{
					"input":13,
					"interpolation":"STEP",
					"output":29
				},
				{
					"input":15,
					"interpolation":"LINEAR",
					"output":30
				},
				{
					"input":13,
					"interpolation":"STEP",
					"output":31
				},
				{
					"input":13,
					"interpolation":"STEP",
					"output":32
				},
				{
					"input":13,
					"interpolation":"STEP",
					"output":33
				},
				{
					"input":13,
					"interpolation":"STEP",
					"output":34
				},
				{
					"input":13,
					"interpolation":"STEP",
					"output":35
				}
			]
		}
	],
	"materials":[
		{
			"doubleSided":true,
			"name":"Libro",
			"normalTexture":{
				"index":0
			},
			"pbrMetallicRoughness":{
				"baseColorTexture":{
					"index":1
				},
				"metallicFactor":0,
				"roughnessFactor":0.720095694065094
			}
		}
	],
	"meshes":[
		{
			"name":"Plane.003",
			"primitives":[
				{
					"attributes":{
						"POSITION":0,
						"NORMAL":1,
						"TEXCOORD_0":2,
						"JOINTS_0":3,
						"WEIGHTS_0":4
					},
					"indices":5,
					"material":0
				}
			]
		},
		{
			"name":"Plane",
			"primitives":[
				{
					"attributes":{
						"POSITION":7,
						"NORMAL":8,
						"TEXCOORD_0":9,
						"JOINTS_0":10,
						"WEIGHTS_0":11
					},
					"indices":12,
					"material":0
				}
			]
		}
	],
	"textures":[
		{
			"sampler":0,
			"source":0
		},
		{
			"sampler":0,
			"source":1
		}
	],
	"images":[
		{
			"mimeType":"image/png",
			"name":"Material.001_Normal",
			"uri":"Material_001_Normal.png"
		},
		{
			"mimeType":"image/png",
			"name":"Material.001_BaseColor",
			"uri":"Material_001_BaseColor.png"
		}
	],
	"skins":[
		{
			"inverseBindMatrices":6,
			"joints":[
				0,
				5,
				4,
				1,
				3,
				2,
				6
			],
			"name":"ArmatureLibro"
		}
	],
	"accessors":[
		{
			"bufferView":0,
			"componentType":5126,
			"count":198,
			"max":[
				0.011120736598968506,
				0.049428295344114304,
				0.15460965037345886
			],
			"min":[
				-0.21511612832546234,
				-0.007132207043468952,
				-0.15460965037345886
			],
			"type":"VEC3"
		},
		{
			"bufferView":1,
			"componentType":5126,
			"count":198,
			"type":"VEC3"
		},
		{
			"bufferView":2,
			"componentType":5126,
			"count":198,
			"type":"VEC2"
		},
		{
			"bufferView":3,
			"componentType":5121,
			"count":198,
			"type":"VEC4"
		},
		{
			"bufferView":4,
			"componentType":5126,
			"count":198,
			"type":"VEC4"
		},
		{
			"bufferView":5,
			"componentType":5123,
			"count":684,
			"type":"SCALAR"
		},
		{
			"bufferView":6,
			"componentType":5126,
			"count":7,
			"type":"MAT4"
		},
		{
			"bufferView":7,
			"componentType":5126,
			"count":168,
			"max":[
				0.0027739927172660828,
				0.043199751526117325,
				0.148499995470047
			],
			"min":[
				-0.2072260081768036,
				0,
				-0.148499995470047
			],
			"type":"VEC3"
		},
		{
			"bufferView":8,
			"componentType":5126,
			"count":168,
			"type":"VEC3"
		},
		{
			"bufferView":9,
			"componentType":5126,
			"count":168,
			"type":"VEC2"
		},
		{
			"bufferView":10,
			"componentType":5121,
			"count":168,
			"type":"VEC4"
		},
		{
			"bufferView":11,
			"componentType":5126,
			"count":168,
			"type":"VEC4"
		},
		{
			"bufferView":12,
			"componentType":5123,
			"count":528,
			"type":"SCALAR"
		},
		{
			"bufferView":13,
			"componentType":5126,
			"count":2,
			"max":[
				1.0416666666666667
			],
			"min":[
				0.041666666666666664
			],
			"type":"SCALAR"
		},
		{
			"bufferView":14,
			"componentType":5126,
			"count":2,
			"type":"VEC3"
		},
		{
			"bufferView":15,
			"componentType":5126,
			"count":25,
			"max":[
				1.0416666666666667
			],
			"min":[
				0.041666666666666664
			],
			"type":"SCALAR"
		},
		{
			"bufferView":16,
			"componentType":5126,
			"count":25,
			"type":"VEC4"
		},
		{
			"bufferView":17,
			"componentType":5126,
			"count":2,
			"type":"VEC3"
		},
		{
			"bufferView":18,
			"componentType":5126,
			"count":2,
			"type":"VEC3"
		},
		{
			"bufferView":19,
			"componentType":5126,
			"count":25,
			"type":"VEC4"
		},
		{
			"bufferView":20,
			"componentType":5126,
			"count":2,
			"type":"VEC3"
		},
		{
			"bufferView":21,
			"componentType":5126,
			"count":2,
			"type":"VEC3"
		},
		{
			"bufferView":22,
			"componentType":5126,
			"count":25,
			"type":"VEC4"
		},
		{
			"bufferView":23,
			"componentType":5126,
			"count":2,
			"type":"VEC3"
		},
		{
			"bufferView":24,
			"componentType":5126,
			"count":2,
			"type":"VEC3"
		},
		{
			"bufferView":25,
			"componentType":5126,
			"count":25,
			"type":"VEC4"
		},
		{
			"bufferView":26,
			"componentType":5126,
			"count":2,
			"type":"VEC3"
		},
		{
			"bufferView":27,
			"componentType":5126,
			"count":25,
			"type":"VEC3"
		},
		{
			"bufferView":28,
			"componentType":5126,
			"count":25,
			"type":"VEC4"
		},
		{
			"bufferView":29,
			"componentType":5126,
			"count":2,
			"type":"VEC3"
		},
		{
			"bufferView":30,
			"componentType":5126,
			"count":25,
			"type":"VEC3"
		},
		{
			"bufferView":31,
			"componentType":5126,
			"count":2,
			"type":"VEC4"
		},
		{
			"bufferView":32,
			"componentType":5126,
			"count":2,
			"type":"VEC3"
		},
		{
			"bufferView":33,
			"componentType":5126,
			"count":2,
			"type":"VEC3"
		},
		{
			"bufferView":34,
			"componentType":5126,
			"count":2,
			"type":"VEC4"
		},
		{
			"bufferView":35,
			"componentType":5126,
			"count":2,
			"type":"VEC3"
		}
	],
	"bufferViews":[
		{
			"buffer":0,
			"byteLength":2376,
			"byteOffset":0,
			"target":34962
		},
		{
			"buffer":0,
			"byteLength":2376,
			"byteOffset":2376,
			"target":34962
		},
		{
			"buffer":0,
			"byteLength":1584,
			"byteOffset":4752,
			"target":34962
		},
		{
			"buffer":0,
			"byteLength":792,
			"byteOffset":6336,
			"target":34962
		},
		{
			"buffer":0,
			"byteLength":3168,
			"byteOffset":7128,
			"target":34962
		},
		{
			"buffer":0,
			"byteLength":1368,
			"byteOffset":10296,
			"target":34963
		},
		{
			"buffer":0,
			"byteLength":448,
			"byteOffset":11664
		},
		{
			"buffer":0,
			"byteLength":2016,
			"byteOffset":12112,
			"target":34962
		},
		{
			"buffer":0,
			"byteLength":2016,
			"byteOffset":14128,
			"target":34962
		},
		{
			"buffer":0,
			"byteLength":1344,
			"byteOffset":16144,
			"target":34962
		},
		{
			"buffer":0,
			"byteLength":672,
			"byteOffset":17488,
			"target":34962
		},
		{
			"buffer":0,
			"byteLength":2688,
			"byteOffset":18160,
			"target":34962
		},
		{
			"buffer":0,
			"byteLength":1056,
			"byteOffset":20848,
			"target":34963
		},
		{
			"buffer":0,
			"byteLength":8,
			"byteOffset":21904
		},
		{
			"buffer":0,
			"byteLength":24,
			"byteOffset":21912
		},
		{
			"buffer":0,
			"byteLength":100,
			"byteOffset":21936
		},
		{
			"buffer":0,
			"byteLength":400,
			"byteOffset":22036
		},
		{
			"buffer":0,
			"byteLength":24,
			"byteOffset":22436
		},
		{
			"buffer":0,
			"byteLength":24,
			"byteOffset":22460
		},
		{
			"buffer":0,
			"byteLength":400,
			"byteOffset":22484
		},
		{
			"buffer":0,
			"byteLength":24,
			"byteOffset":22884
		},
		{
			"buffer":0,
			"byteLength":24,
			"byteOffset":22908
		},
		{
			"buffer":0,
			"byteLength":400,
			"byteOffset":22932
		},
		{
			"buffer":0,
			"byteLength":24,
			"byteOffset":23332
		},
		{
			"buffer":0,
			"byteLength":24,
			"byteOffset":23356
		},
		{
			"buffer":0,
			"byteLength":400,
			"byteOffset":23380
		},
		{
			"buffer":0,
			"byteLength":24,
			"byteOffset":23780
		},
		{
			"buffer":0,
			"byteLength":300,
			"byteOffset":23804
		},
		{
			"buffer":0,
			"byteLength":400,
			"byteOffset":24104
		},
		{
			"buffer":0,
			"byteLength":24,
			"byteOffset":24504
		},
		{
			"buffer":0,
			"byteLength":300,
			"byteOffset":24528
		},
		{
			"buffer":0,
			"byteLength":32,
			"byteOffset":24828
		},
		{
			"buffer":0,
			"byteLength":24,
			"byteOffset":24860
		},
		{
			"buffer":0,
			"byteLength":24,
			"byteOffset":24884
		},
		{
			"buffer":0,
			"byteLength":32,
			"byteOffset":24908
		},
		{
			"buffer":0,
			"byteLength":24,
			"byteOffset":24940
		}
	],
	"samplers":[
		{
			"magFilter":9729,
			"minFilter":9987
		}
	],
	"buffers":[
		{
			"byteLength":24964,
			"uri":"Librov4.bin"
		}
	]
}
