{
	"asset":{
		"generator":"Khronos glTF Blender I/O v4.0.44",
		"version":"2.0"
	},
	"scene":0,
	"scenes":[
		{
			"name":"Scene",
			"nodes":[
				7
			]
		}
	],
	"nodes":[
		{
			"name":"ROOT_ROTATION",
			"rotation":[
				-1.1634239882596376e-07,
				2.1336365563229265e-08,
				0.7071067690849304,
				0.7071067690849304
			]
		},
		{
			"name":"ROTATION_TOP",
			"rotation":[
				-2.6692537957728746e-08,
				2.6692537957728746e-08,
				0.7071067690849304,
				0.7071067690849304
			],
			"translation":[
				0,
				0.08967269957065582,
				0
			]
		},
		{
			"name":"ROTATION_TOP.001",
			"rotation":[
				-2.6692537957728746e-08,
				2.6692537957728746e-08,
				0.7071067690849304,
				0.7071067690849304
			],
			"translation":[
				-0.0006036162376403809,
				-0.004867032170295715,
				0
			]
		},
		{
			"children":[
				1,
				2
			],
			"name":"ROTATION_MID02",
			"translation":[
				0,
				0.08967266976833344,
				0
			]
		},
		{
			"children":[
				3
			],
			"name":"ROTATION_MID01",
			"translation":[
				0,
				0.09058970957994461,
				0
			]
		},
		{
			"name":"ROTATION_BOT",
			"rotation":[
				-0.5,
				0.5,
				0.5,
				0.5
			],
			"translation":[
				0,
				0.09058970957994461,
				0
			]
		},
		{
			"mesh":0,
			"name":"Plane.002",
			"skin":0
		},
		{
			"children":[
				6,
				0,
				4,
				5
			],
			"name":"Armature.001",
			"scale":[
				0.11791250854730606,
				0.11791250854730606,
				0.11791250854730606
			]
		}
	],
	"animations":[
		{
			"channels":[
				{
					"sampler":0,
					"target":{
						"node":0,
						"path":"translation"
					}
				},
				{
					"sampler":1,
					"target":{
						"node":0,
						"path":"rotation"
					}
				},
				{
					"sampler":2,
					"target":{
						"node":0,
						"path":"scale"
					}
				},
				{
					"sampler":3,
					"target":{
						"node":4,
						"path":"translation"
					}
				},
				{
					"sampler":4,
					"target":{
						"node":4,
						"path":"rotation"
					}
				},
				{
					"sampler":5,
					"target":{
						"node":4,
						"path":"scale"
					}
				},
				{
					"sampler":6,
					"target":{
						"node":3,
						"path":"translation"
					}
				},
				{
					"sampler":7,
					"target":{
						"node":3,
						"path":"rotation"
					}
				},
				{
					"sampler":8,
					"target":{
						"node":3,
						"path":"scale"
					}
				},
				{
					"sampler":9,
					"target":{
						"node":1,
						"path":"translation"
					}
				},
				{
					"sampler":10,
					"target":{
						"node":1,
						"path":"rotation"
					}
				},
				{
					"sampler":11,
					"target":{
						"node":1,
						"path":"scale"
					}
				},
				{
					"sampler":12,
					"target":{
						"node":2,
						"path":"translation"
					}
				},
				{
					"sampler":13,
					"target":{
						"node":2,
						"path":"rotation"
					}
				},
				{
					"sampler":14,
					"target":{
						"node":2,
						"path":"scale"
					}
				},
				{
					"sampler":15,
					"target":{
						"node":5,
						"path":"translation"
					}
				},
				{
					"sampler":16,
					"target":{
						"node":5,
						"path":"rotation"
					}
				},
				{
					"sampler":17,
					"target":{
						"node":5,
						"path":"scale"
					}
				}
			],
			"name":"OPEN",
			"samplers":[
				{
					"input":7,
					"interpolation":"STEP",
					"output":8
				},
				{
					"input":9,
					"interpolation":"LINEAR",
					"output":10
				},
				{
					"input":7,
					"interpolation":"STEP",
					"output":11
				},
				{
					"input":7,
					"interpolation":"STEP",
					"output":12
				},
				{
					"input":9,
					"interpolation":"LINEAR",
					"output":13
				},
				{
					"input":7,
					"interpolation":"STEP",
					"output":14
				},
				{
					"input":7,
					"interpolation":"STEP",
					"output":15
				},
				{
					"input":9,
					"interpolation":"LINEAR",
					"output":16
				},
				{
					"input":7,
					"interpolation":"STEP",
					"output":17
				},
				{
					"input":7,
					"interpolation":"STEP",
					"output":18
				},
				{
					"input":9,
					"interpolation":"LINEAR",
					"output":19
				},
				{
					"input":7,
					"interpolation":"STEP",
					"output":20
				},
				{
					"input":9,
					"interpolation":"LINEAR",
					"output":21
				},
				{
					"input":9,
					"interpolation":"LINEAR",
					"output":22
				},
				{
					"input":7,
					"interpolation":"STEP",
					"output":23
				},
				{
					"input":7,
					"interpolation":"STEP",
					"output":24
				},
				{
					"input":7,
					"interpolation":"STEP",
					"output":25
				},
				{
					"input":7,
					"interpolation":"STEP",
					"output":26
				}
			]
		}
	],
	"materials":[
		{
			"doubleSided":true,
			"emissiveTexture":{
				"index":0
			},
			"name":"Material.001",
			"normalTexture":{
				"index":1
			},
			"pbrMetallicRoughness":{
				"baseColorTexture":{
					"index":2
				},
				"metallicRoughnessTexture":{
					"index":3
				}
			}
		}
	],
	"meshes":[
		{
			"name":"Plane.003",
			"primitives":[
				{
					"attributes":{
						"POSITION":0,
						"NORMAL":1,
						"TEXCOORD_0":2,
						"JOINTS_0":3,
						"WEIGHTS_0":4
					},
					"indices":5,
					"material":0
				}
			]
		}
	],
	"textures":[
		{
			"sampler":0,
			"source":0
		},
		{
			"sampler":0,
			"source":1
		},
		{
			"sampler":0,
			"source":2
		},
		{
			"sampler":0,
			"source":3
		}
	],
	"images":[
		{
			"mimeType":"image/png",
			"name":"Libro_Material.001_Emissive",
			"uri":"Libro_Material_001_Emissive.png"
		},
		{
			"mimeType":"image/png",
			"name":"Libro_Material.001_Normal",
			"uri":"Libro_Material_001_Normal.png"
		},
		{
			"mimeType":"image/png",
			"name":"Libro_Material.001_BaseColor",
			"uri":"Libro_Material_001_BaseColor.png"
		},
		{
			"mimeType":"image/png",
			"name":"Libro_Material.001_Metallic-Libro_Material.001_Roughness",
			"uri":"Libro_Material_001_Metallic-Libro_Material_001_Roughness.png"
		}
	],
	"skins":[
		{
			"inverseBindMatrices":6,
			"joints":[
				0,
				4,
				3,
				1,
				2,
				5
			],
			"name":"Armature.001"
		}
	],
	"accessors":[
		{
			"bufferView":0,
			"componentType":5126,
			"count":296,
			"max":[
				0.011120736598968506,
				0.049428295344114304,
				0.15460965037345886
			],
			"min":[
				-0.21511612832546234,
				-0.007132207043468952,
				-0.15460965037345886
			],
			"type":"VEC3"
		},
		{
			"bufferView":1,
			"componentType":5126,
			"count":296,
			"type":"VEC3"
		},
		{
			"bufferView":2,
			"componentType":5126,
			"count":296,
			"type":"VEC2"
		},
		{
			"bufferView":3,
			"componentType":5121,
			"count":296,
			"type":"VEC4"
		},
		{
			"bufferView":4,
			"componentType":5126,
			"count":296,
			"type":"VEC4"
		},
		{
			"bufferView":5,
			"componentType":5123,
			"count":684,
			"type":"SCALAR"
		},
		{
			"bufferView":6,
			"componentType":5126,
			"count":6,
			"type":"MAT4"
		},
		{
			"bufferView":7,
			"componentType":5126,
			"count":2,
			"max":[
				1.875
			],
			"min":[
				0.041666666666666664
			],
			"type":"SCALAR"
		},
		{
			"bufferView":8,
			"componentType":5126,
			"count":2,
			"type":"VEC3"
		},
		{
			"bufferView":9,
			"componentType":5126,
			"count":45,
			"max":[
				1.875
			],
			"min":[
				0.041666666666666664
			],
			"type":"SCALAR"
		},
		{
			"bufferView":10,
			"componentType":5126,
			"count":45,
			"type":"VEC4"
		},
		{
			"bufferView":11,
			"componentType":5126,
			"count":2,
			"type":"VEC3"
		},
		{
			"bufferView":12,
			"componentType":5126,
			"count":2,
			"type":"VEC3"
		},
		{
			"bufferView":13,
			"componentType":5126,
			"count":45,
			"type":"VEC4"
		},
		{
			"bufferView":14,
			"componentType":5126,
			"count":2,
			"type":"VEC3"
		},
		{
			"bufferView":15,
			"componentType":5126,
			"count":2,
			"type":"VEC3"
		},
		{
			"bufferView":16,
			"componentType":5126,
			"count":45,
			"type":"VEC4"
		},
		{
			"bufferView":17,
			"componentType":5126,
			"count":2,
			"type":"VEC3"
		},
		{
			"bufferView":18,
			"componentType":5126,
			"count":2,
			"type":"VEC3"
		},
		{
			"bufferView":19,
			"componentType":5126,
			"count":45,
			"type":"VEC4"
		},
		{
			"bufferView":20,
			"componentType":5126,
			"count":2,
			"type":"VEC3"
		},
		{
			"bufferView":21,
			"componentType":5126,
			"count":45,
			"type":"VEC3"
		},
		{
			"bufferView":22,
			"componentType":5126,
			"count":45,
			"type":"VEC4"
		},
		{
			"bufferView":23,
			"componentType":5126,
			"count":2,
			"type":"VEC3"
		},
		{
			"bufferView":24,
			"componentType":5126,
			"count":2,
			"type":"VEC3"
		},
		{
			"bufferView":25,
			"componentType":5126,
			"count":2,
			"type":"VEC4"
		},
		{
			"bufferView":26,
			"componentType":5126,
			"count":2,
			"type":"VEC3"
		}
	],
	"bufferViews":[
		{
			"buffer":0,
			"byteLength":3552,
			"byteOffset":0,
			"target":34962
		},
		{
			"buffer":0,
			"byteLength":3552,
			"byteOffset":3552,
			"target":34962
		},
		{
			"buffer":0,
			"byteLength":2368,
			"byteOffset":7104,
			"target":34962
		},
		{
			"buffer":0,
			"byteLength":1184,
			"byteOffset":9472,
			"target":34962
		},
		{
			"buffer":0,
			"byteLength":4736,
			"byteOffset":10656,
			"target":34962
		},
		{
			"buffer":0,
			"byteLength":1368,
			"byteOffset":15392,
			"target":34963
		},
		{
			"buffer":0,
			"byteLength":384,
			"byteOffset":16760
		},
		{
			"buffer":0,
			"byteLength":8,
			"byteOffset":17144
		},
		{
			"buffer":0,
			"byteLength":24,
			"byteOffset":17152
		},
		{
			"buffer":0,
			"byteLength":180,
			"byteOffset":17176
		},
		{
			"buffer":0,
			"byteLength":720,
			"byteOffset":17356
		},
		{
			"buffer":0,
			"byteLength":24,
			"byteOffset":18076
		},
		{
			"buffer":0,
			"byteLength":24,
			"byteOffset":18100
		},
		{
			"buffer":0,
			"byteLength":720,
			"byteOffset":18124
		},
		{
			"buffer":0,
			"byteLength":24,
			"byteOffset":18844
		},
		{
			"buffer":0,
			"byteLength":24,
			"byteOffset":18868
		},
		{
			"buffer":0,
			"byteLength":720,
			"byteOffset":18892
		},
		{
			"buffer":0,
			"byteLength":24,
			"byteOffset":19612
		},
		{
			"buffer":0,
			"byteLength":24,
			"byteOffset":19636
		},
		{
			"buffer":0,
			"byteLength":720,
			"byteOffset":19660
		},
		{
			"buffer":0,
			"byteLength":24,
			"byteOffset":20380
		},
		{
			"buffer":0,
			"byteLength":540,
			"byteOffset":20404
		},
		{
			"buffer":0,
			"byteLength":720,
			"byteOffset":20944
		},
		{
			"buffer":0,
			"byteLength":24,
			"byteOffset":21664
		},
		{
			"buffer":0,
			"byteLength":24,
			"byteOffset":21688
		},
		{
			"buffer":0,
			"byteLength":32,
			"byteOffset":21712
		},
		{
			"buffer":0,
			"byteLength":24,
			"byteOffset":21744
		}
	],
	"samplers":[
		{
			"magFilter":9729,
			"minFilter":9987
		}
	],
	"buffers":[
		{
			"byteLength":21768,
			"uri":"Libro.bin"
		}
	]
}
